# xmcd
#
# Track frame offsets: 
#        150
#        15237
#        33037
#        52525
#        72250
#        85150
#        101262
#        118700
#        144300
#        159925
#        183175
#
# Disc length: 2699 seconds
#
# Revision: 0
# Processed by: cddbd v1.5PL3 Copyright (c) Steve Scherf et al.
# Submitted via: ExactAudioCopy v0.95a4
#
DISCID=6f0a890b
DTITLE=Thino Eisbrenner - Willkommen in der Welt
DYEAR=1993
DGENRE=
TTITLE0=Du Weiﬂt wie Du Mich Fangen Kannst
TTITLE1=In Ihren Fenster
TTITLE2=Geht es Dir Dut?
TTITLE3=Fremd Hier
TTITLE4=Willkommen in der Welt
TTITLE5=Endlich Wieder
TTITLE6=Das Kriecht
TTITLE7=Viele Sommer,Viele Winter
TTITLE8=Immer
TTITLE9=Du Machst Mich so Traurig
TTITLE10=Uh-Yeah
EXTD=
EXTT0=
EXTT1=
EXTT2=
EXTT3=
EXTT4=
EXTT5=
EXTT6=
EXTT7=
EXTT8=
EXTT9=
EXTT10=
PLAYORDER=
